<mxfile host="app.diagrams.net" modified="2020-12-13T11:49:40.930Z" agent="5.0 (Windows NT 10.0; Win64; x64) AppleWebKit/537.36 (KHTML, like Gecko) Chrome/87.0.4280.88 Safari/537.36" etag="XE597cPSeTLe9hRabM7Q" version="14.0.1" type="github">
  <diagram id="Idni9gt48yzOjo8QUFbK" name="Page-1">
    <mxGraphModel dx="1422" dy="794" grid="1" gridSize="10" guides="1" tooltips="1" connect="1" arrows="1" fold="1" page="1" pageScale="1" pageWidth="827" pageHeight="1169" math="0" shadow="0">
      <root>
        <mxCell id="0" />
        <mxCell id="1" parent="0" />
        <mxCell id="I6kVfwnH48Mdd5yuerV_-1" value="Student" style="shape=umlActor;verticalLabelPosition=bottom;verticalAlign=top;html=1;" parent="1" vertex="1">
          <mxGeometry x="160" y="30" width="30" height="60" as="geometry" />
        </mxCell>
        <mxCell id="I6kVfwnH48Mdd5yuerV_-5" value="&lt;font style=&quot;font-size: 11px&quot;&gt;Coll@HBRS&lt;/font&gt;" style="shape=umlFrame;whiteSpace=wrap;html=1;" parent="1" vertex="1">
          <mxGeometry x="10" y="310" width="810" height="390" as="geometry" />
        </mxCell>
        <mxCell id="I6kVfwnH48Mdd5yuerV_-6" value="Unternehmer" style="shape=umlActor;verticalLabelPosition=bottom;verticalAlign=top;html=1;direction=east;" parent="1" vertex="1">
          <mxGeometry x="457.5" y="30" width="30" height="60" as="geometry" />
        </mxCell>
        <mxCell id="I6kVfwnH48Mdd5yuerV_-7" value="Benutzer" style="shape=umlActor;verticalLabelPosition=bottom;verticalAlign=top;html=1;" parent="1" vertex="1">
          <mxGeometry x="330" y="190" width="30" height="60" as="geometry" />
        </mxCell>
        <mxCell id="I6kVfwnH48Mdd5yuerV_-10" value="" style="triangle;whiteSpace=wrap;html=1;direction=south;" parent="1" vertex="1">
          <mxGeometry x="327.5" y="170" width="35" height="20" as="geometry" />
        </mxCell>
        <mxCell id="I6kVfwnH48Mdd5yuerV_-11" value="Login eines registrierten Benutzers" style="ellipse;whiteSpace=wrap;html=1;" parent="1" vertex="1">
          <mxGeometry x="252.5" y="355" width="110" height="50" as="geometry" />
        </mxCell>
        <mxCell id="I6kVfwnH48Mdd5yuerV_-12" value="Benutzer registrieren" style="ellipse;whiteSpace=wrap;html=1;" parent="1" vertex="1">
          <mxGeometry x="670" y="425" width="110" height="50" as="geometry" />
        </mxCell>
        <mxCell id="I6kVfwnH48Mdd5yuerV_-13" value="Suchanfragen eintragen" style="ellipse;whiteSpace=wrap;html=1;" parent="1" vertex="1">
          <mxGeometry x="680" y="190" width="110" height="50" as="geometry" />
        </mxCell>
        <mxCell id="I6kVfwnH48Mdd5yuerV_-14" value="Unternehmen" style="ellipse;whiteSpace=wrap;html=1;" parent="1" vertex="1">
          <mxGeometry x="710" y="590" width="110" height="50" as="geometry" />
        </mxCell>
        <mxCell id="I6kVfwnH48Mdd5yuerV_-15" value="Student" style="ellipse;whiteSpace=wrap;html=1;" parent="1" vertex="1">
          <mxGeometry x="590" y="590" width="110" height="50" as="geometry" />
        </mxCell>
        <mxCell id="I6kVfwnH48Mdd5yuerV_-16" value="" style="endArrow=none;html=1;entryX=0;entryY=1;entryDx=0;entryDy=0;entryPerimeter=0;exitX=0.5;exitY=0;exitDx=0;exitDy=0;" parent="1" source="I6kVfwnH48Mdd5yuerV_-11" target="I6kVfwnH48Mdd5yuerV_-7" edge="1">
          <mxGeometry width="50" height="50" relative="1" as="geometry">
            <mxPoint x="390" y="400" as="sourcePoint" />
            <mxPoint x="440" y="350" as="targetPoint" />
          </mxGeometry>
        </mxCell>
        <mxCell id="I6kVfwnH48Mdd5yuerV_-17" value="SIS" style="rounded=0;whiteSpace=wrap;html=1;" parent="1" vertex="1">
          <mxGeometry x="670" y="770" width="70" height="40" as="geometry" />
        </mxCell>
        <mxCell id="I6kVfwnH48Mdd5yuerV_-18" value="" style="endArrow=none;html=1;exitX=0.5;exitY=0;exitDx=0;exitDy=0;entryX=0.5;entryY=1;entryDx=0;entryDy=0;" parent="1" source="I6kVfwnH48Mdd5yuerV_-17" target="I6kVfwnH48Mdd5yuerV_-15" edge="1">
          <mxGeometry width="50" height="50" relative="1" as="geometry">
            <mxPoint x="390" y="700" as="sourcePoint" />
            <mxPoint x="440" y="650" as="targetPoint" />
          </mxGeometry>
        </mxCell>
        <mxCell id="I6kVfwnH48Mdd5yuerV_-19" value="" style="triangle;whiteSpace=wrap;html=1;direction=north;" parent="1" vertex="1">
          <mxGeometry x="700" y="475" width="30" height="20" as="geometry" />
        </mxCell>
        <mxCell id="I6kVfwnH48Mdd5yuerV_-20" value="" style="endArrow=none;html=1;exitX=0.5;exitY=0;exitDx=0;exitDy=0;entryX=0;entryY=0.25;entryDx=0;entryDy=0;" parent="1" source="I6kVfwnH48Mdd5yuerV_-15" target="I6kVfwnH48Mdd5yuerV_-19" edge="1">
          <mxGeometry width="50" height="50" relative="1" as="geometry">
            <mxPoint x="390" y="500" as="sourcePoint" />
            <mxPoint x="440" y="450" as="targetPoint" />
          </mxGeometry>
        </mxCell>
        <mxCell id="I6kVfwnH48Mdd5yuerV_-21" value="" style="endArrow=none;html=1;exitX=0.5;exitY=0;exitDx=0;exitDy=0;entryX=0;entryY=0.75;entryDx=0;entryDy=0;" parent="1" source="I6kVfwnH48Mdd5yuerV_-14" target="I6kVfwnH48Mdd5yuerV_-19" edge="1">
          <mxGeometry width="50" height="50" relative="1" as="geometry">
            <mxPoint x="495" y="600" as="sourcePoint" />
            <mxPoint x="557.5" y="490" as="targetPoint" />
          </mxGeometry>
        </mxCell>
        <mxCell id="I6kVfwnH48Mdd5yuerV_-22" value="" style="endArrow=none;html=1;entryX=0;entryY=1;entryDx=0;entryDy=0;entryPerimeter=0;exitX=0;exitY=0.25;exitDx=0;exitDy=0;" parent="1" source="I6kVfwnH48Mdd5yuerV_-10" target="I6kVfwnH48Mdd5yuerV_-6" edge="1">
          <mxGeometry width="50" height="50" relative="1" as="geometry">
            <mxPoint x="390" y="200" as="sourcePoint" />
            <mxPoint x="440" y="150" as="targetPoint" />
          </mxGeometry>
        </mxCell>
        <mxCell id="I6kVfwnH48Mdd5yuerV_-23" value="" style="endArrow=none;html=1;entryX=0;entryY=0.75;entryDx=0;entryDy=0;exitX=1;exitY=1;exitDx=0;exitDy=0;exitPerimeter=0;" parent="1" source="I6kVfwnH48Mdd5yuerV_-1" target="I6kVfwnH48Mdd5yuerV_-10" edge="1">
          <mxGeometry width="50" height="50" relative="1" as="geometry">
            <mxPoint x="363.75" y="180" as="sourcePoint" />
            <mxPoint x="490" y="170" as="targetPoint" />
          </mxGeometry>
        </mxCell>
        <mxCell id="I6kVfwnH48Mdd5yuerV_-24" value="Fachkompetenzen verwaltet" style="ellipse;whiteSpace=wrap;html=1;" parent="1" vertex="1">
          <mxGeometry x="90" y="475" width="110" height="50" as="geometry" />
        </mxCell>
        <mxCell id="I6kVfwnH48Mdd5yuerV_-25" value="" style="endArrow=none;html=1;entryX=0;entryY=1;entryDx=0;entryDy=0;entryPerimeter=0;exitX=0.5;exitY=0;exitDx=0;exitDy=0;" parent="1" source="I6kVfwnH48Mdd5yuerV_-24" target="I6kVfwnH48Mdd5yuerV_-1" edge="1">
          <mxGeometry width="50" height="50" relative="1" as="geometry">
            <mxPoint x="139" y="440" as="sourcePoint" />
            <mxPoint x="480" y="590" as="targetPoint" />
          </mxGeometry>
        </mxCell>
        <mxCell id="2BaVzF96S5Z35MbNFWjq-1" value="Stellenanzeige aufgeben" style="ellipse;whiteSpace=wrap;html=1;" vertex="1" parent="1">
          <mxGeometry x="610" y="360" width="106" height="45" as="geometry" />
        </mxCell>
        <mxCell id="2BaVzF96S5Z35MbNFWjq-2" value="" style="endArrow=none;html=1;entryX=1;entryY=1;entryDx=0;entryDy=0;exitX=0.5;exitY=0;exitDx=0;exitDy=0;entryPerimeter=0;" edge="1" parent="1" source="2BaVzF96S5Z35MbNFWjq-1" target="I6kVfwnH48Mdd5yuerV_-6">
          <mxGeometry width="50" height="50" relative="1" as="geometry">
            <mxPoint x="630" y="590" as="sourcePoint" />
            <mxPoint x="440" y="350" as="targetPoint" />
          </mxGeometry>
        </mxCell>
        <mxCell id="2BaVzF96S5Z35MbNFWjq-3" value="Fachkompetenzen abfragen" style="ellipse;whiteSpace=wrap;html=1;" vertex="1" parent="1">
          <mxGeometry x="90" y="600" width="110" height="50" as="geometry" />
        </mxCell>
        <mxCell id="2BaVzF96S5Z35MbNFWjq-4" value="&amp;lt;&amp;lt;include&amp;gt;&amp;gt;" style="html=1;verticalAlign=bottom;endArrow=open;dashed=1;endSize=8;entryX=0.5;entryY=0;entryDx=0;entryDy=0;exitX=0.5;exitY=1;exitDx=0;exitDy=0;" edge="1" parent="1" source="I6kVfwnH48Mdd5yuerV_-24" target="2BaVzF96S5Z35MbNFWjq-3">
          <mxGeometry relative="1" as="geometry">
            <mxPoint x="250" y="510" as="sourcePoint" />
            <mxPoint x="170" y="510" as="targetPoint" />
            <Array as="points" />
          </mxGeometry>
        </mxCell>
        <mxCell id="2BaVzF96S5Z35MbNFWjq-6" value="Stammdaten von Studenten extrahieren und verwalten" style="ellipse;whiteSpace=wrap;html=1;" vertex="1" parent="1">
          <mxGeometry x="357.5" y="575" width="130" height="65" as="geometry" />
        </mxCell>
        <mxCell id="2BaVzF96S5Z35MbNFWjq-8" value="Verwalte Bewerbungen von Studenten" style="ellipse;whiteSpace=wrap;html=1;" vertex="1" parent="1">
          <mxGeometry x="260" y="440" width="110" height="50" as="geometry" />
        </mxCell>
        <mxCell id="2BaVzF96S5Z35MbNFWjq-9" value="&amp;lt;&amp;lt;include&amp;gt;&amp;gt;" style="html=1;verticalAlign=bottom;endArrow=open;dashed=1;endSize=8;entryX=0;entryY=0;entryDx=0;entryDy=0;exitX=0.5;exitY=1;exitDx=0;exitDy=0;" edge="1" parent="1" source="2BaVzF96S5Z35MbNFWjq-8" target="2BaVzF96S5Z35MbNFWjq-6">
          <mxGeometry relative="1" as="geometry">
            <mxPoint x="155" y="535" as="sourcePoint" />
            <mxPoint x="155" y="610" as="targetPoint" />
            <Array as="points" />
          </mxGeometry>
        </mxCell>
        <mxCell id="2BaVzF96S5Z35MbNFWjq-17" style="edgeStyle=orthogonalEdgeStyle;rounded=0;orthogonalLoop=1;jettySize=auto;html=1;entryX=1;entryY=0.3333333333333333;entryDx=0;entryDy=0;entryPerimeter=0;" edge="1" parent="1" source="2BaVzF96S5Z35MbNFWjq-10" target="I6kVfwnH48Mdd5yuerV_-6">
          <mxGeometry relative="1" as="geometry">
            <mxPoint x="540" y="80" as="targetPoint" />
            <Array as="points">
              <mxPoint x="440" y="350" />
              <mxPoint x="540" y="350" />
              <mxPoint x="540" y="50" />
            </Array>
          </mxGeometry>
        </mxCell>
        <mxCell id="2BaVzF96S5Z35MbNFWjq-10" value="Sende Reports über neue Bewerbungen" style="ellipse;whiteSpace=wrap;html=1;" vertex="1" parent="1">
          <mxGeometry x="380" y="437.5" width="120" height="55" as="geometry" />
        </mxCell>
        <mxCell id="2BaVzF96S5Z35MbNFWjq-11" value="&amp;lt;&amp;lt;include&amp;gt;&amp;gt;" style="html=1;verticalAlign=bottom;endArrow=open;dashed=1;endSize=8;entryX=0.5;entryY=0;entryDx=0;entryDy=0;exitX=0.5;exitY=1;exitDx=0;exitDy=0;" edge="1" parent="1" source="2BaVzF96S5Z35MbNFWjq-10" target="2BaVzF96S5Z35MbNFWjq-6">
          <mxGeometry relative="1" as="geometry">
            <mxPoint x="285" y="595" as="sourcePoint" />
            <mxPoint x="375" y="515" as="targetPoint" />
            <Array as="points" />
          </mxGeometry>
        </mxCell>
        <mxCell id="2BaVzF96S5Z35MbNFWjq-18" style="edgeStyle=orthogonalEdgeStyle;rounded=0;orthogonalLoop=1;jettySize=auto;html=1;" edge="1" parent="1" source="2BaVzF96S5Z35MbNFWjq-12">
          <mxGeometry relative="1" as="geometry">
            <mxPoint x="480" y="36" as="targetPoint" />
            <Array as="points">
              <mxPoint x="570" y="36" />
            </Array>
          </mxGeometry>
        </mxCell>
        <mxCell id="2BaVzF96S5Z35MbNFWjq-12" value="Informiere über neue Fachkompetenzen" style="ellipse;whiteSpace=wrap;html=1;" vertex="1" parent="1">
          <mxGeometry x="510" y="437.5" width="120" height="55" as="geometry" />
        </mxCell>
        <mxCell id="2BaVzF96S5Z35MbNFWjq-13" value="&amp;lt;&amp;lt;include&amp;gt;&amp;gt;" style="html=1;verticalAlign=bottom;endArrow=open;dashed=1;endSize=8;entryX=1;entryY=0;entryDx=0;entryDy=0;exitX=0.5;exitY=1;exitDx=0;exitDy=0;" edge="1" parent="1" source="2BaVzF96S5Z35MbNFWjq-12" target="2BaVzF96S5Z35MbNFWjq-6">
          <mxGeometry relative="1" as="geometry">
            <mxPoint x="510" y="585" as="sourcePoint" />
            <mxPoint x="485" y="505" as="targetPoint" />
            <Array as="points" />
          </mxGeometry>
        </mxCell>
        <mxCell id="2BaVzF96S5Z35MbNFWjq-16" value="" style="endArrow=none;html=1;exitX=1;exitY=0;exitDx=0;exitDy=0;entryX=0;entryY=1;entryDx=0;entryDy=0;entryPerimeter=0;" edge="1" parent="1" source="2BaVzF96S5Z35MbNFWjq-8" target="I6kVfwnH48Mdd5yuerV_-6">
          <mxGeometry width="50" height="50" relative="1" as="geometry">
            <mxPoint x="580" y="447.5" as="sourcePoint" />
            <mxPoint x="490" y="100" as="targetPoint" />
          </mxGeometry>
        </mxCell>
      </root>
    </mxGraphModel>
  </diagram>
</mxfile>
